<?xml version="1.0" encoding="UTF-8" standalone="no"?>
<!-- Created with Inkscape (http://www.inkscape.org/) -->

<svg
   xmlns:dc="http://purl.org/dc/elements/1.1/"
   xmlns:cc="http://creativecommons.org/ns#"
   xmlns:rdf="http://www.w3.org/1999/02/22-rdf-syntax-ns#"
   xmlns:svg="http://www.w3.org/2000/svg"
   xmlns="http://www.w3.org/2000/svg"
   xmlns:xlink="http://www.w3.org/1999/xlink"
   xmlns:sodipodi="http://sodipodi.sourceforge.net/DTD/sodipodi-0.dtd"
   xmlns:inkscape="http://www.inkscape.org/namespaces/inkscape"
   width="86.559441mm"
   height="86.952576mm"
   viewBox="0 0 86.559441 86.952576"
   version="1.1"
   id="svg1601"
   inkscape:version="0.92.3 (2405546, 2018-03-11)"
   sodipodi:docname="emeagwali_logo_amarelo.svg">
  <defs
     id="defs1595">
    <color-profile
       name="FOGRA28L-Web-Coated"
       xlink:href="/usr/share/color/icc/colord/FOGRA28L_webcoated.icc"
       id="color-profile2164" />
  </defs>
  <sodipodi:namedview
     id="base"
     pagecolor="#ffffff"
     bordercolor="#666666"
     borderopacity="1.0"
     inkscape:pageopacity="0.0"
     inkscape:pageshadow="2"
     inkscape:zoom="0.7"
     inkscape:cx="466.84088"
     inkscape:cy="171.14313"
     inkscape:document-units="mm"
     inkscape:current-layer="layer1"
     showgrid="false"
     fit-margin-top="0"
     fit-margin-left="0"
     fit-margin-right="0"
     fit-margin-bottom="0"
     inkscape:window-width="1920"
     inkscape:window-height="1055"
     inkscape:window-x="0"
     inkscape:window-y="0"
     inkscape:window-maximized="1" />
  <metadata
     id="metadata1598">
    <rdf:RDF>
      <cc:Work
         rdf:about="">
        <dc:format>image/svg+xml</dc:format>
        <dc:type
           rdf:resource="http://purl.org/dc/dcmitype/StillImage" />
        <dc:title></dc:title>
      </cc:Work>
    </rdf:RDF>
  </metadata>
  <g
     inkscape:label="Camada 1"
     inkscape:groupmode="layer"
     id="layer1"
     transform="translate(-65.57743,-113.67253)">
    <rect
       inkscape:export-ydpi="96"
       inkscape:export-xdpi="96"
       inkscape:export-filename="/home/ike123/Downloads/emeawgali.png"
       style="fill:#d11600 icc-color(FOGRA28L-Web-Coated, 0, 0.9242237, 0.99201953, 0.05871672);fill-opacity:1;fill-rule:evenodd;stroke:none;stroke-width:1.71886051;stroke-miterlimit:4;stroke-dasharray:none"
       id="rect1591"
       width="67.221405"
       height="43.706223"
       x="76.593407"
       y="140.99286" />
    <path
       inkscape:export-filename="/home/ike123/Downloads/emeawgali.png"
       inkscape:export-ydpi="96"
       inkscape:export-xdpi="96"
       style="fill:#f3b200 icc-color(FOGRA28L-Web-Coated, 0.00384527, 0.27223621, 0.96675059, 0.03860533);fill-opacity:1;fill-rule:evenodd;stroke:none;stroke-width:0.26589757;stroke-miterlimit:4;stroke-dasharray:none"
       d="m 82.623673,113.67253 c -7.049884,0.0187 -13.498045,4.52533 -16.01295,11.19628 -1.511992,4.0107 -1.564506,2.58059 1.196056,32.46975 1.355425,14.6752 2.576763,27.35898 2.714311,28.1864 1.174235,7.06374 7.136547,13.20232 14.380427,14.8056 1.148228,0.25414 2.478383,0.33644 4.446822,0.27523 2.433674,-0.0757 5.721937,-0.63476 24.632551,-4.18748 13.80611,-2.59378 22.27582,-4.28837 23.05393,-4.6127 1.7348,-0.72306 4.18082,-2.36446 5.20076,-3.48996 1.47646,-1.62936 2.68965,-3.72612 3.28856,-5.684 0.46692,-1.52649 4.03417,-25.66835 6.55701,-44.37593 0.31511,-2.33653 -0.74608,-6.92731 -2.17737,-9.42005 -2.29184,-3.99148 -6.32088,-7.14838 -10.58568,-8.2942 -1.76985,-0.47547 -54.581256,-6.87398 -56.694427,-6.86894 z m 36.452317,27.29108 c 0.0533,0.002 0.10859,0.014 0.16433,0.0352 0.12885,0.0508 0.23264,0.16225 0.2738,0.29259 0.1253,0.39657 -0.30511,0.75003 -0.67338,0.55311 -0.10279,-0.0549 -0.15505,-0.11371 -0.20775,-0.2326 -0.13787,-0.31152 0.0887,-0.62475 0.39011,-0.64739 0.0186,-0.002 0.035,-0.002 0.0532,-5.7e-4 z m 4.35566,0.61514 c 0.0236,0.007 0.16597,0.48221 0.25544,0.8534 0.35393,1.46769 0.40567,2.85123 0.15274,4.09001 -0.0708,0.34691 -0.2681,0.96654 -0.40821,1.28264 -0.33008,0.74476 -0.77238,1.355 -1.27864,1.76428 -0.77392,0.62562 -1.82516,0.86366 -3.03716,0.68757 -0.46471,-0.0674 -1.14324,-0.25344 -1.64658,-0.45117 -0.29155,-0.11437 -0.5339,-0.227 -0.55342,-0.25692 -0.0186,-0.0278 0.004,-0.0891 0.1959,-0.53214 0.47729,-1.10285 1.16454,-2.07215 1.92148,-2.7097 0.54684,-0.46056 1.22595,-0.82179 1.82914,-0.97315 0.0863,-0.0209 0.15877,-0.0453 0.1611,-0.0522 0.007,-0.0187 -0.16991,-0.0187 -0.38828,-0.007 -1.66221,0.11306 -3.12208,1.26641 -4.16263,3.28832 -0.0712,0.13879 -0.13695,0.27554 -0.14624,0.30407 -0.0232,0.0708 -0.0617,0.0757 -0.0851,0.008 -0.0268,-0.0754 -0.11345,-0.5856 -0.1381,-0.81345 -0.11068,-1.02783 0.093,-1.94582 0.58491,-2.63434 0.51443,-0.72002 1.36388,-1.20313 2.42127,-1.3774 0.14716,-0.0239 0.42932,-0.0571 0.62677,-0.0727 1.21847,-0.0963 2.08178,-0.35272 2.72494,-0.80913 0.22074,-0.15668 0.49466,-0.44043 0.63129,-0.65399 0.0921,-0.14414 0.11819,-0.20265 0.19706,-0.4462 0.0498,-0.15413 0.0988,-0.32942 0.10884,-0.38936 0.009,-0.0599 0.025,-0.10674 0.0332,-0.10423 z m -1.80678,0.46134 c 0.31949,0.008 0.53204,0.36932 0.35955,0.65507 -0.12305,0.20402 -0.40525,0.27028 -0.60662,0.14253 -0.20542,-0.13017 -0.26119,-0.40301 -0.1253,-0.61132 0.0522,-0.0803 0.20451,-0.17107 0.30704,-0.18337 0.0231,-0.001 0.044,-0.004 0.065,-0.001 z m -1.48791,0.72026 c 0.0686,-0.002 0.12674,0.0429 0.14019,0.12003 0.0186,0.1128 -0.0736,0.1929 -0.18361,0.15807 -0.0525,-0.0162 -0.0738,-0.0355 -0.0909,-0.0812 -0.03,-0.0791 -0.007,-0.1405 0.0636,-0.17757 0.0237,-0.0119 0.0477,-0.0187 0.0705,-0.0187 z m -2.35794,0.18452 c 0.0905,-0.007 0.18314,0.0309 0.23143,0.10713 0.11832,0.18614 0.0209,0.39803 -0.19058,0.41372 -0.0912,0.007 -0.1049,0.004 -0.17339,-0.0429 -0.13881,-0.0942 -0.14833,-0.30579 -0.0186,-0.4171 0.0432,-0.0368 0.0969,-0.057 0.15087,-0.0609 z m 0.90845,0.0771 c 0.0833,0.002 0.15924,0.0602 0.17271,0.15945 0.0119,0.085 -0.0417,0.17386 -0.11886,0.19801 -0.0683,0.0209 -0.1734,-0.0187 -0.21564,-0.0787 -0.0419,-0.0617 -0.0346,-0.16574 0.0162,-0.21635 0.0435,-0.0438 0.0961,-0.0636 0.14601,-0.0624 z m -7.06202,2.38936 c 0.007,-5.6e-4 0.009,0.0271 0.009,0.062 -1.9e-4,0.0349 0.009,0.13854 0.0236,0.23051 0.0209,0.14506 0.03,0.18082 0.0678,0.27115 0.0565,0.13386 0.18359,0.32051 0.2932,0.43039 0.31904,0.32 0.78178,0.54816 1.46081,0.72028 0.11003,0.0278 0.26623,0.0736 0.34708,0.10135 0.58048,0.20056 1.01338,0.55572 1.23408,1.01218 0.211,0.43647 0.23708,0.97478 0.0748,1.54478 -0.0359,0.12647 -0.13463,0.40613 -0.15737,0.44621 -0.0186,0.0346 -0.0411,0.0278 -0.0469,-0.0141 -0.001,-0.0187 -0.0262,-0.10068 -0.0532,-0.1857 -0.39144,-1.24278 -1.10423,-2.03541 -2.03236,-2.25988 -0.12188,-0.0295 -0.22098,-0.0453 -0.2198,-0.0349 3.5e-4,0.004 0.0392,0.0239 0.0859,0.0448 0.32609,0.14369 0.67461,0.41358 0.93879,0.72663 0.36571,0.43327 0.65975,1.04723 0.82226,1.71642 0.0652,0.26889 0.072,0.3056 0.0589,0.31964 -0.014,0.0162 -0.16179,0.0549 -0.33759,0.0915 -0.30359,0.0632 -0.70499,0.10266 -0.97408,0.096 -0.70185,-0.0187 -1.2728,-0.25349 -1.64926,-0.68166 -0.24625,-0.28013 -0.43687,-0.66762 -0.55097,-1.12026 -0.0485,-0.19219 -0.0996,-0.56121 -0.10608,-0.76405 -0.0232,-0.7243 0.14111,-1.50094 0.48375,-2.29596 0.0869,-0.20101 0.21284,-0.4553 0.22724,-0.4575 z m 5.58678,6.64426 c 0.17641,-0.007 0.35396,0.0432 0.49576,0.15832 0.29459,0.24025 0.45739,0.67352 0.20519,1.00475 -0.75485,1.1044 -2.00087,3.36206 -2.00087,3.36206 0,0 -0.0652,2.34583 -0.0186,3.75302 1.06518,0.0371 2.1282,0.14806 3.17926,0.33654 4.31253,0.74129 8.38888,2.74168 11.62494,5.67291 3.02967,-3.39709 4.81221,-7.83404 5.09872,-12.36162 -0.0641,-0.64734 0.48373,-1.18024 1.0863,-1.29598 0.57028,-0.0942 1.39774,0.24025 1.38138,0.90911 -0.0857,1.54433 -0.38409,3.07024 -0.81866,4.55649 0.90974,-0.5076 1.78844,-1.07273 2.64009,-1.66996 0.59999,-0.46827 1.39814,-0.18313 1.84636,0.34671 0.57294,0.68013 0.2998,1.834 -0.51658,2.19108 -1.64787,1.10308 -3.43903,1.984 -5.31186,2.6296 -0.97914,2.00536 -2.17763,3.91586 -3.6945,5.55745 -0.1295,0.14576 -0.26142,0.28942 -0.39482,0.43174 0.13323,0.14227 0.26518,0.28594 0.39482,0.43176 1.82659,1.97673 3.19271,4.34285 4.26855,6.79566 0.0186,0.044 0.0334,0.089 0.0504,0.13274 1.80212,0.63897 3.52623,1.49566 5.11682,2.56033 0.8164,0.35713 1.08949,1.51095 0.51655,2.19108 -0.44822,0.53002 -1.24659,0.81502 -1.84656,0.34671 -0.88288,-0.61912 -1.79534,-1.20317 -2.74076,-1.72499 0.25483,1.08839 0.42856,2.19438 0.49029,3.30995 0.0162,0.66886 -0.81106,1.00306 -1.38135,0.90886 -0.60258,-0.11582 -1.1504,-0.64864 -1.08631,-1.29597 -0.28653,-4.52756 -2.06904,-8.96431 -5.0987,-12.36141 -3.23607,2.93126 -7.3124,4.93164 -11.62494,5.6729 -0.99537,0.17851 -2.00152,0.28693 -3.01002,0.32959 -0.007,1.33125 0.034,2.86355 0.034,2.86355 -3e-5,0 1.24652,2.2576 2.00134,3.36207 0.25218,0.33122 0.0891,0.7647 -0.20543,1.00494 -0.37805,0.3071 -1.00956,0.14857 -1.19899,-0.29978 -0.40234,-0.61713 -0.74703,-1.26971 -1.03359,-1.94676 -0.24435,0.60027 -0.44363,1.21966 -0.61363,1.84436 -0.0884,0.40637 -0.52496,0.56461 -0.89965,0.49763 -0.47983,-0.0867 -0.76954,-0.66787 -0.55093,-1.10287 0.32756,-1.10818 1.27503,-3.35959 1.27503,-3.35959 0,0 0.0286,-1.37417 0.0209,-2.84367 -4.91263,-0.0429 -9.8079,-1.65329 -13.73942,-4.60616 -0.5116,-0.37589 -1.00477,-0.77539 -1.481365,-1.19287 -1.353372,1.56777 -2.474502,3.33291 -3.291946,5.23302 -0.981317,2.24928 -1.44599,4.67801 -1.677758,7.10856 -0.03329,0.7589 -0.769514,1.17847 -1.464862,1.17346 -0.890835,-0.007 -1.592722,-0.96534 -1.334077,-1.81593 0.08831,-0.7529 0.216382,-1.50011 0.380109,-2.23935 -0.791689,0.45747 -1.560346,0.95638 -2.307684,1.48046 -0.599993,0.46831 -1.398343,0.18313 -1.846562,-0.34671 -0.572948,-0.68013 -0.300051,-1.83395 0.516343,-2.19108 1.466203,-0.98144 3.046291,-1.78649 4.695951,-2.40695 1.09074,-2.77453 2.710427,-5.34233 4.755449,-7.51477 -1.632454,-1.73446 -2.994923,-3.71977 -4.03253,-5.8622 -2.008748,-0.65512 -3.92949,-1.57898 -5.686991,-2.75546 -0.81642,-0.35712 -1.089543,-1.51095 -0.516581,-2.19107 0.448206,-0.53002 1.24683,-0.81501 1.846802,-0.34673 0.970049,0.68027 1.975279,1.31898 3.021325,1.87842 -0.389706,-1.285 -0.668856,-2.60361 -0.825631,-3.9391 -0.258645,-0.8506 0.443242,-1.80775 1.334077,-1.81597 0.695348,-0.006 1.431615,0.41434 1.464862,1.17325 0.231743,2.43053 0.696441,4.85979 1.677758,7.10901 0.817261,1.89971 1.93785,3.66439 3.290829,5.2319 0.476622,-0.4175 0.970822,-0.81581 1.482482,-1.19175 3.87908,-2.91352 8.69672,-4.51972 13.54322,-4.60344 0.0331,-1.75296 -0.009,-3.74284 -0.009,-3.74284 0,0 -0.94767,-2.2514 -1.27525,-3.35961 -0.21865,-0.43498 0.0713,-1.01612 0.55098,-1.10285 0.37465,-0.0671 0.81116,0.0917 0.89963,0.49787 0.17014,0.62466 0.36949,1.24408 0.61383,1.84435 0.28657,-0.67705 0.63127,-1.32989 1.0336,-1.94699 0.11832,-0.28025 0.40915,-0.4471 0.70303,-0.45791 z m 3.22295,1.03993 c 0.26972,-0.007 0.5552,0.0392 0.84579,0.1388 0.0811,0.0276 0.23232,0.0878 0.33621,0.13317 0.64126,0.28151 1.14663,0.38594 1.59564,0.32981 0.15414,-0.0187 0.36996,-0.0883 0.49714,-0.15901 0.0857,-0.0477 0.1149,-0.0702 0.22098,-0.17176 0.0674,-0.0642 0.13973,-0.13923 0.16108,-0.1669 0.0209,-0.0276 0.0416,-0.0472 0.045,-0.044 0.009,0.008 -0.0477,0.28853 -0.10357,0.50013 -0.22145,0.83661 -0.57258,1.5489 -1.03788,2.10556 -0.13044,0.15596 -0.39862,0.41508 -0.55549,0.53667 -0.36962,0.28645 -0.75908,0.47467 -1.12614,0.54411 -0.56115,0.10608 -1.15661,-0.0586 -1.72031,-0.47575 -0.21609,-0.15992 -0.50806,-0.4377 -0.70823,-0.67381 v -1.9e-4 c -0.1161,-0.13696 -0.20751,-0.25911 -0.2094,-0.2795 -0.001,-0.0184 0.0262,-0.0438 0.24393,-0.21538 0.5415,-0.42734 1.15274,-0.73039 1.70854,-0.84707 0.40156,-0.0841 0.84267,-0.0829 1.18834,0.007 0.0495,0.0119 0.0924,0.0209 0.0957,0.0187 0.007,-0.007 -0.0804,-0.0559 -0.1945,-0.1074 -0.86976,-0.39322 -1.92082,-0.20683 -2.99715,0.53168 -0.0738,0.0506 -0.14461,0.102 -0.15691,0.11397 -0.0307,0.0297 -0.0517,0.0209 -0.0456,-0.0187 0.007,-0.0454 0.10213,-0.32637 0.15204,-0.448 0.22423,-0.54876 0.57729,-0.95679 1.01323,-1.17099 0.22794,-0.11213 0.48193,-0.17153 0.75167,-0.17802 z m -4.69164,8.91476 c -0.18013,-0.001 -0.36029,-3.5e-4 -0.54058,0.004 -3.15675,-0.0678 -6.29764,0.74525 -9.12399,2.11846 -1.81123,0.91712 -3.48603,2.1062 -4.96021,3.50578 1.47419,1.39958 3.14895,2.5888 4.96021,3.50594 2.82635,1.37325 5.96724,2.18623 9.12399,2.11824 5.25201,0.10872 10.45616,-2.02534 14.24693,-5.62399 -3.66069,-3.47519 -8.63926,-5.5846 -13.70635,-5.62757 z"
       id="path1593"
       inkscape:connector-curvature="0" />
  </g>
</svg>
